# xmcd
# 
# Track frame offsets:
#     150
#     16872
#     32461
#     46685
#     61647
#     69713
#     85054
#     100779
#     116987
#     136543
#     155630
#     170613
#     182007
# 
# Disc length: 2674
# 
# Revision: 1
# Processed by: cddbd v1.5.2PL0 Copyright (c) Steve Scherf et al.
# Submitted via: fre:ac v1.0.17
# 
DISCID=9a0a700d
DTITLE=Eric Bibb - Natural Light
DYEAR=2003
DGENRE=Blues
TTITLE0=Too Much Stuff
TTITLE1=Home Lovin' Man
TTITLE2=So Sorry
TTITLE3=Tell Riley
TTITLE4=Guru Man Blues
TTITLE5=Every Time It Rains
TTITLE6=Champagne Habits
TTITLE7=Water Works Fine
TTITLE8=Circles
TTITLE9=Right On Time
TTITLE10=Gratefully Blue
TTITLE11=Lucky Man Rag
TTITLE12=Higher And Higher
EXTD=YEAR: 2003
EXTT0=
EXTT1=
EXTT2=
EXTT3=
EXTT4=
EXTT5=
EXTT6=
EXTT7=
EXTT8=
EXTT9=
EXTT10=
EXTT11=
EXTT12=
PLAYORDER=
